<svg xmlns="http://www.w3.org/2000/svg" viewBox="0 0 24.21 24.21">
<path d="M12.1,24.21A12.18,12.18,0,0,0,24.21,12.1,12.18,12.18,0,0,0,12.1,0,12.17,12.17,0,0,0,0,12.1,12.18,12.18,0,0,0,12.1,24.21Zm0-2.38a9.73,9.73,0,1,1,9.73-9.73A9.69,9.69,0,0,1,12.1,21.83Z" fill="hsla(0, 0%, 100%, .1)"/>
<path d="M12.1,14.05a.94.94,0,0,0,1-1l.19-5.7a1.13,1.13,0,0,0-1.21-1.17,1.1,1.1,0,0,0-1.2,1.16L11.05,13A1,1,0,0,0,12.1,14.05Zm0,3.89a1.29,1.29,0,1,0-1.38-1.29A1.33,1.33,0,0,0,12.1,17.94Z" fill="hsla(353, 91%, 60%, .9)"/>
</svg>